<svg xmlns="http://www.w3.org/2000/svg" xmlns:xlink="http://www.w3.org/1999/xlink" width="500" zoomAndPan="magnify" viewBox="0 0 375 374.999991" height="500" preserveAspectRatio="xMidYMid meet" version="1.2"><defs><clipPath id="114f385ec1"><path d="M 108 92.472656 L 262 92.472656 L 262 171 L 108 171 Z M 108 92.472656 "/></clipPath><clipPath id="85a0d9eb94"><path d="M 124 254 L 182 254 L 182 282.222656 L 124 282.222656 Z M 124 254 "/></clipPath><clipPath id="344e919d04"><path d="M 191 259 L 248 259 L 248 282.222656 L 191 282.222656 Z M 191 259 "/></clipPath><clipPath id="31f8789704"><path d="M 52.707031 187 L 281 187 L 281 276 L 52.707031 276 Z M 52.707031 187 "/></clipPath><clipPath id="046f7ea91d"><path d="M 169 117 L 210 117 L 210 152 L 169 152 Z M 169 117 "/></clipPath><clipPath id="d7538519b8"><path d="M 157.515625 122.566406 L 210.476562 112.015625 L 217.363281 146.585938 L 164.402344 157.136719 Z M 157.515625 122.566406 "/></clipPath><clipPath id="0667d39544"><path d="M 157.515625 122.566406 L 210.476562 112.015625 L 220.878906 164.238281 L 167.921875 174.789062 Z M 157.515625 122.566406 "/></clipPath><clipPath id="8835e8d550"><path d="M 163 138 L 217 138 L 217 158 L 163 158 Z M 163 138 "/></clipPath><clipPath id="0f0c33236a"><path d="M 157.515625 122.566406 L 210.476562 112.015625 L 217.363281 146.585938 L 164.402344 157.136719 Z M 157.515625 122.566406 "/></clipPath><clipPath id="7032ef859f"><path d="M 157.515625 122.566406 L 210.476562 112.015625 L 220.878906 164.238281 L 167.921875 174.789062 Z M 157.515625 122.566406 "/></clipPath><clipPath id="2f3394d5d2"><rect x="0" width="197" y="0" height="86"/></clipPath><clipPath id="c19b5481c7"><rect x="0" width="140" y="0" height="72"/></clipPath></defs><g id="5a6efaa0f4"><g clip-rule="nonzero" clip-path="url(#114f385ec1)"><path style=" stroke:none;fill-rule:nonzero;fill:#000000;fill-opacity:1;" d="M 108.9375 165.019531 C 110.203125 167.699219 113.308594 169.617188 117.660156 170.300781 C 131.515625 172.496094 153.78125 167.402344 179.566406 161.5 C 189.765625 159.167969 200.316406 156.753906 211.292969 154.566406 C 214.457031 153.9375 217.507812 153.3125 220.453125 152.707031 C 235.535156 149.617188 248.535156 146.953125 261.046875 146.992188 C 246.6875 122.84375 220.523438 106.527344 190.511719 105.996094 C 195.933594 101.390625 197.542969 98.285156 196.246094 95.566406 C 194.949219 92.835938 190.308594 92.480469 188.242188 92.480469 C 186.171875 92.480469 181.535156 92.835938 180.234375 95.566406 C 178.933594 98.296875 180.554688 101.414062 186.015625 106.03125 C 149.664062 107.304688 119.203125 131.730469 108.9375 165.019531 Z M 166.226562 117.007812 C 143.117188 128.6875 132.824219 144.351562 127.5625 156.304688 C 124.703125 162.800781 118.929688 160.359375 120.597656 156.09375 C 129.84375 137.292969 146.4375 123.199219 166.226562 117.007812 Z M 166.226562 117.007812 "/></g><path style=" stroke:none;fill-rule:nonzero;fill:#000000;fill-opacity:1;" d="M 107.507812 234.195312 C 110.792969 240.191406 114.753906 245.84375 119.28125 250.992188 L 121.550781 248.996094 C 117.167969 244.015625 113.335938 238.546875 110.160156 232.746094 Z M 107.507812 234.195312 "/><g clip-rule="nonzero" clip-path="url(#85a0d9eb94)"><path style=" stroke:none;fill-rule:nonzero;fill:#000000;fill-opacity:1;" d="M 124.863281 256.8125 C 140.089844 271.378906 159.972656 280.40625 180.851562 282.230469 L 181.113281 279.21875 C 160.917969 277.453125 141.683594 268.722656 126.949219 254.628906 Z M 124.863281 256.8125 "/></g><g clip-rule="nonzero" clip-path="url(#344e919d04)"><path style=" stroke:none;fill-rule:nonzero;fill:#000000;fill-opacity:1;" d="M 191.976562 279.511719 L 192.074219 282.53125 C 212.4375 281.867188 231.578125 274.710938 247.433594 261.835938 L 245.527344 259.488281 C 230.191406 271.945312 211.671875 278.867188 191.976562 279.511719 Z M 191.976562 279.511719 "/></g><path style=" stroke:none;fill-rule:nonzero;fill:#000000;fill-opacity:1;" d="M 251.757812 253.933594 L 253.871094 256.09375 C 256.917969 253.113281 259.78125 249.898438 262.390625 246.539062 L 260 244.6875 C 257.480469 247.9375 254.707031 251.050781 251.757812 253.933594 Z M 251.757812 253.933594 "/><path style=" stroke:none;fill-rule:nonzero;fill:#000000;fill-opacity:1;" d="M 311.308594 158.898438 C 304.046875 153.820312 295.128906 153.761719 290.304688 158.441406 C 268.277344 147.792969 249.125 151.714844 221.414062 157.394531 C 218.457031 158.003906 215.398438 158.628906 212.226562 159.261719 C 201.316406 161.429688 190.800781 163.835938 180.628906 166.164062 C 154.363281 172.175781 131.679688 177.367188 116.910156 175.027344 C 112.941406 174.402344 109.699219 172.929688 107.394531 170.828125 C 107.386719 170.824219 107.382812 170.824219 107.375 170.824219 C 95.863281 161.933594 106.746094 145.496094 115.867188 139.796875 C 103.898438 144.773438 96.925781 154.355469 98.097656 164.203125 C 99.105469 172.664062 105.984375 178.90625 116.042969 180.5 C 118.796875 180.9375 121.769531 181.136719 124.949219 181.136719 C 140.039062 181.132812 159.707031 176.636719 181.867188 171.5625 C 192 169.246094 202.476562 166.847656 213.308594 164.691406 C 216.492188 164.058594 219.558594 163.429688 222.523438 162.820312 C 248.867188 157.421875 267.136719 153.679688 287.4375 163.222656 C 285.714844 169.175781 288.882812 176.667969 295.59375 181.363281 C 303.589844 186.957031 313.589844 186.464844 317.929688 180.261719 C 322.269531 174.058594 319.304688 164.492188 311.308594 158.898438 Z M 311.308594 158.898438 "/><g clip-rule="nonzero" clip-path="url(#31f8789704)"><path style=" stroke:none;fill-rule:nonzero;fill:#000000;fill-opacity:1;" d="M 261.949219 198.996094 C 246.125 196.492188 222.953125 201.792969 196.128906 207.933594 C 185.996094 210.25 175.515625 212.648438 164.683594 214.804688 C 161.5 215.4375 158.433594 216.066406 155.46875 216.675781 C 128.808594 222.136719 110.417969 225.90625 89.820312 215.921875 L 89.863281 215.863281 C 88.46875 209.175781 88.726562 203.9375 84.058594 200.753906 C 81.167969 198.78125 62.894531 187.941406 62.894531 187.941406 L 79.824219 202.066406 L 78.769531 203.417969 L 60.296875 190.953125 L 77.15625 205.480469 L 75.96875 206.996094 L 57.40625 194.136719 L 74.34375 209.070312 L 73.160156 210.585938 L 55.007812 197.710938 L 71.546875 212.644531 L 70.488281 213.996094 L 52.707031 200.957031 C 52.707031 200.957031 67.621094 216.089844 70.226562 218.421875 C 74.441406 222.1875 79.464844 220.679688 86.292969 220.425781 L 86.328125 220.382812 C 95.328125 224.953125 103.820312 227.074219 112.5625 227.609375 C 119.332031 241.261719 129.625 252.847656 142.445312 261.214844 C 156.292969 270.253906 172.386719 275.03125 188.996094 275.03125 C 228.507812 275.03125 262.757812 247.824219 271.90625 209.792969 C 281.242188 218.878906 270.875 234.230469 262.125 239.699219 C 274.09375 234.722656 281.066406 225.140625 279.894531 215.292969 C 278.886719 206.832031 272.007812 200.589844 261.949219 198.996094 Z M 156.578125 222.101562 C 159.535156 221.492188 162.59375 220.867188 165.765625 220.238281 C 176.675781 218.066406 187.191406 215.65625 197.363281 213.332031 C 211.300781 210.140625 224.226562 207.183594 235.5 205.457031 C 228.839844 225.296875 210.277344 238.816406 188.996094 238.816406 C 175.074219 238.816406 162.089844 233.050781 152.796875 222.875 C 154.042969 222.621094 155.300781 222.363281 156.578125 222.101562 Z M 188.996094 272.007812 C 158.335938 272.007812 130.113281 254.757812 116.019531 227.738281 C 118.042969 227.769531 120.089844 227.71875 122.164062 227.605469 C 122.199219 227.664062 122.238281 227.726562 122.273438 227.785156 C 122.660156 228.394531 123.050781 228.984375 123.464844 229.5625 C 124.289062 230.710938 125.15625 231.816406 126.085938 232.859375 C 127.015625 233.898438 127.980469 234.898438 129.007812 235.820312 C 130.015625 236.761719 131.097656 237.609375 132.183594 238.425781 C 131.328125 237.363281 130.5 236.296875 129.773438 235.164062 C 129.023438 234.050781 128.359375 232.890625 127.746094 231.714844 C 127.128906 230.539062 126.59375 229.332031 126.117188 228.113281 C 126.015625 227.855469 125.917969 227.59375 125.824219 227.335938 C 127.863281 227.148438 129.929688 226.910156 132.035156 226.621094 C 132.316406 227.019531 132.601562 227.414062 132.898438 227.792969 C 133.679688 228.796875 134.511719 229.738281 135.382812 230.628906 C 136.269531 231.507812 137.164062 232.355469 138.125 233.125 C 139.066406 233.910156 140.058594 234.625 141.054688 235.304688 C 140.28125 234.371094 139.535156 233.429688 138.863281 232.441406 C 138.175781 231.46875 137.570312 230.445312 136.996094 229.421875 C 136.4375 228.390625 135.9375 227.335938 135.507812 226.269531 C 135.488281 226.21875 135.46875 226.167969 135.445312 226.117188 C 137.519531 225.789062 139.632812 225.425781 141.796875 225.027344 C 142.304688 225.644531 142.8125 226.195312 143.34375 226.753906 C 143.972656 227.410156 144.625 228.035156 145.300781 228.636719 C 146.644531 229.832031 148.09375 230.914062 149.636719 231.761719 C 148.394531 230.511719 147.359375 229.117188 146.449219 227.65625 C 145.996094 226.925781 145.574219 226.183594 145.179688 225.425781 C 145.019531 225.117188 144.863281 224.800781 144.710938 224.480469 C 146.242188 224.1875 147.792969 223.882812 149.375 223.566406 C 159.300781 235.207031 173.609375 241.835938 188.996094 241.835938 C 212.097656 241.835938 232.179688 226.824219 238.820312 204.980469 C 240.460938 204.761719 242.0625 204.570312 243.625 204.414062 C 243.578125 205.167969 243.503906 205.921875 243.40625 206.679688 C 243.183594 208.382812 242.816406 210.078125 242.203125 211.730469 C 243.257812 210.320312 244.132812 208.738281 244.859375 207.09375 C 245.226562 206.269531 245.558594 205.425781 245.863281 204.570312 C 245.90625 204.445312 245.949219 204.320312 245.992188 204.199219 C 248.210938 204.019531 250.335938 203.917969 252.367188 203.898438 C 252.351562 204.789062 252.292969 205.683594 252.199219 206.582031 C 252.058594 207.746094 251.894531 208.921875 251.625 210.085938 C 251.382812 211.253906 251.050781 212.410156 250.695312 213.566406 C 251.355469 212.554688 252 211.519531 252.570312 210.433594 C 253.164062 209.359375 253.667969 208.230469 254.152344 207.082031 C 254.5625 206.058594 254.929688 205.007812 255.242188 203.933594 C 257.304688 204.003906 259.253906 204.179688 261.082031 204.46875 C 261.121094 204.472656 261.15625 204.480469 261.195312 204.488281 C 261.160156 205.738281 261.070312 207.003906 260.898438 208.265625 C 260.726562 209.578125 260.496094 210.898438 260.175781 212.203125 C 259.875 213.515625 259.460938 214.800781 259.019531 216.089844 C 259.761719 214.953125 260.488281 213.785156 261.117188 212.554688 C 261.765625 211.339844 262.332031 210.070312 262.847656 208.773438 C 263.324219 207.59375 263.726562 206.378906 264.082031 205.140625 C 266.082031 205.734375 267.832031 206.578125 269.304688 207.625 C 261.015625 245.070312 227.613281 272.007812 188.996094 272.007812 Z M 188.996094 272.007812 "/></g><g clip-rule="nonzero" clip-path="url(#046f7ea91d)"><g clip-rule="nonzero" clip-path="url(#d7538519b8)"><g clip-rule="nonzero" clip-path="url(#0667d39544)"><path style=" stroke:none;fill-rule:nonzero;fill:#ffffff;fill-opacity:1;" d="M 176.320312 145.28125 C 174.871094 140.804688 177.003906 137.242188 179.066406 133.800781 C 180.84375 130.832031 182.523438 128.027344 181.539062 124.992188 C 180.597656 122.082031 178.082031 122.445312 178.058594 122.449219 L 178.054688 122.449219 C 178.027344 122.453125 178.011719 122.472656 178.007812 122.503906 C 178.003906 122.53125 178.019531 122.550781 178.046875 122.5625 C 179.144531 122.964844 179.886719 123.6875 180.25 124.710938 C 180.960938 126.71875 180.050781 129.382812 179.058594 131.050781 C 178.292969 132.328125 177.453125 133.167969 176.808594 133.296875 C 176.550781 133.347656 176.363281 133.277344 176.273438 133.09375 C 176.058594 132.65625 176.429688 131.699219 177.554688 130.726562 C 177.578125 130.707031 177.582031 130.6875 177.574219 130.660156 C 177.5625 130.636719 177.546875 130.625 177.519531 130.621094 C 177.375 130.621094 177.234375 130.632812 177.09375 130.660156 C 175.351562 131.007812 173.21875 133.613281 173.753906 137.601562 C 174.296875 141.660156 173.707031 144.921875 172.351562 145.359375 C 172.195312 145.421875 172.035156 145.425781 171.875 145.367188 C 171.714844 145.308594 171.59375 145.207031 171.515625 145.054688 C 171.046875 144.339844 171.160156 142.808594 171.75 141.96875 C 171.765625 141.945312 171.765625 141.925781 171.75 141.902344 C 171.738281 141.878906 171.71875 141.871094 171.691406 141.875 L 171.65625 141.878906 C 170.96875 142.015625 170.175781 143.140625 169.808594 144.492188 C 169.578125 145.339844 169.222656 147.457031 170.8125 148.914062 C 170.492188 149.292969 170.429688 149.703125 170.636719 150.074219 C 171.15625 151.003906 173.28125 151.636719 176.335938 151.050781 L 176.339844 151.050781 C 176.371094 151.042969 176.386719 151.023438 176.386719 150.988281 C 176.382812 150.953125 176.367188 150.9375 176.332031 150.933594 C 174.648438 150.417969 173.464844 148.863281 173.453125 147.785156 C 173.449219 147.472656 173.546875 147.0625 174.039062 146.90625 C 174.730469 146.683594 175.265625 147.179688 176.027344 147.890625 C 177.128906 148.914062 178.636719 150.320312 181.65625 150.605469 C 181.660156 150.605469 181.667969 150.601562 181.671875 150.601562 C 181.703125 150.597656 181.71875 150.582031 181.722656 150.550781 C 181.726562 150.519531 181.714844 150.5 181.683594 150.488281 C 178.816406 149.277344 177.0625 147.574219 176.320312 145.28125 Z M 191.890625 141.308594 C 195.347656 139.324219 194.109375 135.839844 193.417969 134.4375 C 192.933594 133.457031 192.84375 132.550781 193.15625 131.8125 C 193.449219 131.148438 193.945312 130.710938 194.640625 130.5 C 194.6875 130.484375 194.734375 130.472656 194.78125 130.464844 C 195.152344 130.382812 195.453125 130.492188 195.6875 130.785156 C 196.132812 131.304688 196.277344 132.324219 196.011719 133.0625 C 196.003906 133.09375 196.011719 133.113281 196.035156 133.132812 C 196.0625 133.148438 196.085938 133.148438 196.109375 133.128906 C 196.546875 132.757812 196.96875 131.332031 196.90625 129.589844 C 196.839844 127.707031 196.167969 124.140625 192.4375 121.425781 C 192.410156 121.40625 192.382812 121.40625 192.359375 121.4375 C 192.335938 121.460938 192.335938 121.488281 192.359375 121.515625 C 193.832031 123.132812 193.972656 125.210938 193.351562 126.425781 C 193.039062 127.039062 193 127.582031 193.25 127.914062 C 193.339844 128.03125 193.457031 128.109375 193.601562 128.148438 C 193.742188 128.1875 193.882812 128.183594 194.019531 128.132812 C 194.042969 128.125 194.066406 128.117188 194.089844 128.113281 C 194.320312 128.074219 194.503906 128.144531 194.648438 128.328125 C 194.878906 128.578125 194.9375 128.859375 194.828125 129.183594 C 194.714844 129.503906 194.488281 129.6875 194.152344 129.734375 C 193.703125 129.824219 193.246094 129.613281 193.132812 129.261719 C 193.019531 128.910156 192.691406 128.746094 192.277344 128.828125 C 191.769531 128.929688 191.273438 129.371094 190.945312 130.003906 C 190.207031 131.449219 190.308594 132.96875 190.390625 134.1875 C 190.480469 135.554688 190.542969 136.546875 189.527344 136.875 C 189.429688 136.90625 189.328125 136.933594 189.226562 136.953125 C 188.058594 137.183594 187.105469 136.535156 186.675781 135.210938 C 186.171875 133.65625 187.09375 132.152344 188.164062 130.410156 C 189.488281 128.25 190.988281 125.804688 189.972656 122.671875 C 188.601562 118.429688 185.238281 117.042969 182.699219 117.546875 C 182.433594 117.601562 182.175781 117.675781 181.925781 117.769531 C 181.894531 117.78125 181.878906 117.800781 181.886719 117.832031 C 181.890625 117.867188 181.910156 117.882812 181.941406 117.882812 C 183.246094 117.929688 184.507812 118.898438 185.234375 120.417969 C 186.53125 123.140625 185.824219 126.730469 183.34375 130.023438 C 179.46875 135.167969 176.390625 139.8125 177.929688 144.578125 C 179.585938 149.6875 185.078125 149.753906 185.132812 149.753906 C 185.136719 149.753906 185.136719 149.753906 185.140625 149.753906 C 185.167969 149.75 185.1875 149.734375 185.191406 149.707031 C 185.199219 149.671875 185.1875 149.652344 185.15625 149.640625 C 182.429688 148.527344 181.695312 146.421875 181.304688 144.316406 C 181.21875 143.847656 181.035156 143.507812 180.773438 143.332031 C 180.601562 143.210938 180.414062 143.171875 180.207031 143.214844 C 179.859375 143.285156 179.488281 143.605469 179.347656 144.175781 C 178.273438 140.375 181.089844 136.992188 183.578125 134.003906 C 184.363281 133.097656 185.097656 132.152344 185.789062 131.171875 C 185.589844 132.070312 185.320312 132.945312 184.980469 133.796875 C 184.394531 135.367188 183.890625 136.726562 184.457031 138.488281 C 185.007812 140.183594 186.035156 140.933594 187.429688 140.65625 C 187.71875 140.59375 188.003906 140.503906 188.277344 140.382812 C 188.613281 141.304688 188.054688 142.023438 187.355469 142.929688 C 186.375 144.195312 185.152344 145.773438 186.046875 148.621094 C 186.058594 148.652344 186.082031 148.664062 186.113281 148.660156 L 186.117188 148.660156 C 186.148438 148.652344 186.164062 148.632812 186.164062 148.601562 C 186.152344 145.90625 188.027344 143.523438 191.890625 141.308594 Z M 205.648438 131.175781 C 205.625 131.160156 205.601562 131.160156 205.578125 131.179688 C 205.554688 131.195312 205.550781 131.21875 205.558594 131.242188 C 206.230469 133.546875 205.785156 134.996094 205.292969 135.808594 C 204.832031 136.597656 204.15625 137.09375 203.261719 137.292969 C 202.289062 137.488281 201.40625 137.105469 201.015625 136.316406 C 201.003906 136.292969 200.980469 136.28125 200.949219 136.285156 C 200.917969 136.292969 200.902344 136.316406 200.90625 136.347656 C 200.964844 138.3125 199.226562 140.871094 197.507812 141.433594 C 199.085938 139.820312 200.003906 137.625 200.089844 135.226562 C 200.164062 133.179688 199.601562 131.136719 198.65625 130.027344 C 198.640625 130.003906 198.617188 130 198.585938 130.011719 C 198.558594 130.027344 198.546875 130.046875 198.554688 130.078125 C 199.175781 134.011719 198.058594 139.210938 193.050781 141.996094 C 191.164062 143.046875 186.855469 145.835938 187.570312 149.082031 C 187.578125 149.113281 187.597656 149.128906 187.628906 149.128906 C 187.632812 149.128906 187.636719 149.128906 187.640625 149.128906 C 187.664062 149.121094 187.679688 149.105469 187.6875 149.082031 C 188.234375 146.3125 190.851562 144.445312 195.691406 143.367188 C 198.121094 142.828125 199.375 141.855469 200.289062 141.148438 C 200.871094 140.695312 201.332031 140.335938 201.898438 140.222656 C 202.128906 140.179688 202.363281 140.175781 202.601562 140.210938 C 203.097656 140.28125 203.390625 140.621094 203.40625 141.144531 C 203.433594 142.125 202.414062 143.695312 200.425781 144.09375 C 200.195312 144.136719 199.960938 144.167969 199.722656 144.179688 C 198.617188 144.214844 197.519531 144.332031 196.429688 144.523438 C 194.742188 144.859375 193.660156 145.480469 193.125 146.417969 C 193.109375 146.449219 193.113281 146.472656 193.136719 146.492188 C 193.160156 146.515625 193.1875 146.515625 193.210938 146.496094 C 193.738281 146.113281 194.316406 145.863281 194.953125 145.742188 C 196.1875 145.496094 197.550781 145.730469 198.648438 145.917969 C 200.046875 146.160156 201.445312 146.144531 202.839844 145.875 C 203.597656 145.726562 204.324219 145.488281 205.023438 145.160156 C 207.445312 144.011719 209.015625 141.625 209.21875 138.777344 C 209.4375 135.699219 208.070312 132.785156 205.648438 131.175781 Z M 205.648438 131.175781 "/></g></g></g><g clip-rule="nonzero" clip-path="url(#8835e8d550)"><g clip-rule="nonzero" clip-path="url(#0f0c33236a)"><g clip-rule="nonzero" clip-path="url(#7032ef859f)"><path style=" stroke:none;fill-rule:evenodd;fill:#ffffff;fill-opacity:1;" d="M 191.417969 154.371094 C 206.054688 151.457031 217.214844 145.546875 216.34375 141.167969 C 216.078125 139.839844 214.734375 138.808594 212.582031 138.09375 C 212.5 138.066406 212.441406 138.089844 212.40625 138.171875 C 212.375 138.257812 212.398438 138.316406 212.476562 138.355469 C 213.59375 138.898438 214.285156 139.589844 214.449219 140.421875 C 215.207031 144.222656 204.707031 149.519531 190.996094 152.253906 C 177.285156 154.984375 165.558594 154.113281 164.800781 150.3125 C 164.636719 149.480469 165.007812 148.578125 165.832031 147.648438 C 165.890625 147.582031 165.890625 147.515625 165.828125 147.453125 C 165.765625 147.390625 165.699219 147.386719 165.632812 147.445312 C 163.917969 148.929688 163.074219 150.398438 163.339844 151.726562 C 164.210938 156.105469 176.785156 157.289062 191.417969 154.371094 Z M 216.410156 144.953125 C 212.9375 149.183594 203.410156 153.574219 191.726562 155.902344 C 180.039062 158.230469 169.554688 157.824219 164.722656 155.25 C 164.664062 155.214844 164.609375 155.222656 164.558594 155.269531 C 164.511719 155.316406 164.5 155.367188 164.523438 155.429688 C 168.941406 165.878906 181.40625 171.984375 194.410156 169.390625 C 207.417969 166.800781 216.589844 156.386719 216.664062 145.042969 C 216.667969 144.976562 216.636719 144.929688 216.570312 144.90625 C 216.507812 144.882812 216.453125 144.898438 216.410156 144.953125 Z M 185.355469 158.929688 C 183.421875 159.945312 179.46875 160.59375 179.175781 162.054688 C 178.746094 164.179688 183.554688 166.691406 185.957031 167.605469 C 186.023438 167.632812 186.050781 167.683594 186.035156 167.753906 C 186.019531 167.824219 185.976562 167.859375 185.902344 167.855469 C 179.300781 167.488281 172.792969 164.480469 168.9375 158.972656 C 168.835938 158.824219 168.734375 158.675781 168.636719 158.523438 C 168.601562 158.476562 168.605469 158.429688 168.636719 158.378906 C 168.671875 158.332031 168.71875 158.316406 168.773438 158.332031 C 171.019531 158.902344 173.476562 159.121094 175.515625 159.195312 C 178.78125 159.292969 182.035156 159.121094 185.277344 158.6875 C 185.347656 158.679688 185.394531 158.707031 185.414062 158.777344 C 185.4375 158.84375 185.417969 158.894531 185.355469 158.929688 Z M 214.054688 149.476562 C 214.023438 149.652344 213.984375 149.828125 213.945312 150.003906 C 212.5 156.570312 207.640625 161.84375 201.683594 164.710938 C 201.617188 164.742188 201.5625 164.730469 201.519531 164.667969 C 201.480469 164.609375 201.484375 164.554688 201.539062 164.503906 C 203.40625 162.738281 206.882812 158.570312 205.675781 156.777344 C 204.84375 155.539062 200.945312 156.457031 198.769531 156.257812 C 198.699219 156.25 198.660156 156.210938 198.652344 156.140625 C 198.648438 156.070312 198.679688 156.023438 198.746094 156.003906 C 201.90625 155.164062 204.976562 154.074219 207.957031 152.734375 C 209.8125 151.886719 211.996094 150.742188 213.851562 149.351562 C 213.898438 149.316406 213.949219 149.3125 213.996094 149.34375 C 214.046875 149.375 214.066406 149.417969 214.054688 149.476562 Z M 214.054688 149.476562 "/></g></g></g><g transform="matrix(1,0,0,1,96,148)"><g clip-path="url(#2f3394d5d2)"><g style="fill:#000000;fill-opacity:1;"><g transform="translate(10.242916, 68.802986)"><path style="stroke:none" d="M 9.4375 -0.390625 C 8.59375 0.0546875 7.753906 0.441406 6.921875 0.765625 C 6.085938 1.085938 5.132812 1.390625 4.0625 1.671875 C 3.101562 -1.972656 1.832031 -6.117188 0.25 -10.765625 C -1.320312 -15.421875 -2.734375 -19.113281 -3.984375 -21.84375 C -2.828125 -22.195312 -1.6875 -22.582031 -0.5625 -23 C 0.550781 -23.425781 1.753906 -23.90625 3.046875 -24.4375 C 3.929688 -24.800781 5.160156 -25.316406 6.734375 -25.984375 C 8.304688 -26.660156 9.390625 -27.128906 9.984375 -27.390625 C 10.171875 -27.078125 10.34375 -26.710938 10.5 -26.296875 C 10.664062 -25.878906 10.816406 -25.40625 10.953125 -24.875 C 11.046875 -24.519531 11.125 -24.125 11.1875 -23.6875 C 11.25 -23.257812 11.285156 -22.785156 11.296875 -22.265625 C 9.585938 -21.609375 8.164062 -21.066406 7.03125 -20.640625 C 5.90625 -20.222656 5.082031 -19.921875 4.5625 -19.734375 C 4.820312 -18.910156 5.078125 -18.082031 5.328125 -17.25 C 5.585938 -16.414062 5.828125 -15.578125 6.046875 -14.734375 C 6.847656 -15.171875 7.648438 -15.535156 8.453125 -15.828125 C 9.265625 -16.128906 10.085938 -16.390625 10.921875 -16.609375 C 11.265625 -16.003906 11.566406 -15.347656 11.828125 -14.640625 C 12.097656 -13.929688 12.378906 -13.03125 12.671875 -11.9375 C 11.585938 -11.65625 10.609375 -11.378906 9.734375 -11.109375 C 8.859375 -10.835938 8.035156 -10.546875 7.265625 -10.234375 C 7.710938 -8.359375 8.117188 -6.597656 8.484375 -4.953125 C 8.847656 -3.316406 9.164062 -1.796875 9.4375 -0.390625 Z M 9.4375 -0.390625 "/></g></g><g style="fill:#000000;fill-opacity:1;"><g transform="translate(25.327198, 64.824457)"><path style="stroke:none" d="M -0.953125 -7.1875 C -1.640625 -10.019531 -1.382812 -12.53125 -0.1875 -14.71875 C 1 -16.90625 2.898438 -18.316406 5.515625 -18.953125 C 7.484375 -19.429688 9.144531 -19.25 10.5 -18.40625 C 11.851562 -17.5625 12.773438 -16.128906 13.265625 -14.109375 C 13.566406 -12.835938 13.675781 -11.503906 13.59375 -10.109375 C 13.519531 -8.722656 13.253906 -7.460938 12.796875 -6.328125 C 12.253906 -5.023438 11.492188 -3.957031 10.515625 -3.125 C 9.546875 -2.300781 8.359375 -1.71875 6.953125 -1.375 C 5.015625 -0.90625 3.347656 -1.195312 1.953125 -2.25 C 0.554688 -3.300781 -0.410156 -4.945312 -0.953125 -7.1875 Z M 7.671875 -11 C 7.285156 -12.5625 6.882812 -13.675781 6.46875 -14.34375 C 6.050781 -15.019531 5.582031 -15.296875 5.0625 -15.171875 C 4.582031 -15.054688 4.304688 -14.46875 4.234375 -13.40625 C 4.171875 -12.351562 4.332031 -11.035156 4.71875 -9.453125 C 5.03125 -8.148438 5.4375 -7.078125 5.9375 -6.234375 C 6.4375 -5.390625 6.929688 -5.023438 7.421875 -5.140625 C 7.910156 -5.265625 8.171875 -5.863281 8.203125 -6.9375 C 8.242188 -8.019531 8.066406 -9.375 7.671875 -11 Z M 7.671875 -11 "/></g></g><g style="fill:#000000;fill-opacity:1;"><g transform="translate(40.211754, 61.185188)"><path style="stroke:none" d="M -0.828125 -7.203125 C -1.460938 -10.046875 -1.164062 -12.546875 0.0625 -14.703125 C 1.300781 -16.867188 3.234375 -18.25 5.859375 -18.84375 C 7.828125 -19.28125 9.476562 -19.066406 10.8125 -18.203125 C 12.15625 -17.347656 13.054688 -15.90625 13.515625 -13.875 C 13.796875 -12.601562 13.882812 -11.269531 13.78125 -9.875 C 13.675781 -8.476562 13.378906 -7.21875 12.890625 -6.09375 C 12.335938 -4.8125 11.566406 -3.757812 10.578125 -2.9375 C 9.585938 -2.125 8.382812 -1.554688 6.96875 -1.234375 C 5.019531 -0.796875 3.359375 -1.117188 1.984375 -2.203125 C 0.609375 -3.285156 -0.328125 -4.953125 -0.828125 -7.203125 Z M 7.859375 -10.859375 C 7.503906 -12.429688 7.125 -13.554688 6.71875 -14.234375 C 6.320312 -14.910156 5.859375 -15.191406 5.328125 -15.078125 C 4.847656 -14.972656 4.5625 -14.390625 4.46875 -13.328125 C 4.382812 -12.273438 4.519531 -10.953125 4.875 -9.359375 C 5.164062 -8.054688 5.550781 -6.976562 6.03125 -6.125 C 6.519531 -5.28125 7.007812 -4.910156 7.5 -5.015625 C 8 -5.128906 8.273438 -5.722656 8.328125 -6.796875 C 8.378906 -7.878906 8.222656 -9.234375 7.859375 -10.859375 Z M 7.859375 -10.859375 "/></g></g><g style="fill:#000000;fill-opacity:1;"><g transform="translate(55.1514, 57.808629)"><path style="stroke:none" d="M 16.03125 -2.578125 C 15.46875 -2.304688 14.75 -2.015625 13.875 -1.703125 C 13.007812 -1.398438 12.210938 -1.175781 11.484375 -1.03125 C 11.316406 -1.40625 11.125 -1.851562 10.90625 -2.375 C 10.695312 -2.90625 10.460938 -3.546875 10.203125 -4.296875 C 9.960938 -3.179688 9.554688 -2.304688 8.984375 -1.671875 C 8.410156 -1.035156 7.640625 -0.617188 6.671875 -0.421875 C 4.890625 -0.0546875 3.378906 -0.429688 2.140625 -1.546875 C 0.898438 -2.660156 0.0390625 -4.390625 -0.4375 -6.734375 C -1.039062 -9.703125 -0.785156 -12.21875 0.328125 -14.28125 C 1.453125 -16.351562 3.28125 -17.648438 5.8125 -18.171875 C 5.914062 -18.191406 6 -18.207031 6.0625 -18.21875 C 6.132812 -18.238281 6.207031 -18.242188 6.28125 -18.234375 C 6.070312 -19.128906 5.867188 -19.992188 5.671875 -20.828125 C 5.484375 -21.660156 5.316406 -22.453125 5.171875 -23.203125 C 5.578125 -23.535156 6.191406 -23.859375 7.015625 -24.171875 C 7.835938 -24.484375 8.691406 -24.734375 9.578125 -24.921875 C 9.972656 -25.003906 10.367188 -25.066406 10.765625 -25.109375 C 11.171875 -25.148438 11.566406 -25.164062 11.953125 -25.15625 C 12.046875 -23.695312 12.359375 -21.378906 12.890625 -18.203125 C 13.429688 -15.023438 14.195312 -11.035156 15.1875 -6.234375 C 15.300781 -5.671875 15.421875 -5.109375 15.546875 -4.546875 C 15.671875 -3.992188 15.832031 -3.335938 16.03125 -2.578125 Z M 5.328125 -8.65625 C 5.585938 -7.363281 5.921875 -6.410156 6.328125 -5.796875 C 6.734375 -5.179688 7.1875 -4.925781 7.6875 -5.03125 C 8.050781 -5.101562 8.328125 -5.472656 8.515625 -6.140625 C 8.703125 -6.804688 8.773438 -7.71875 8.734375 -8.875 C 8.347656 -10.238281 8.023438 -11.390625 7.765625 -12.328125 C 7.515625 -13.273438 7.285156 -14.164062 7.078125 -15 L 6.859375 -14.953125 C 6.035156 -14.785156 5.476562 -14.148438 5.1875 -13.046875 C 4.90625 -11.941406 4.953125 -10.476562 5.328125 -8.65625 Z M 5.328125 -8.65625 "/></g></g><g style="fill:#000000;fill-opacity:1;"><g transform="translate(71.573544, 54.473118)"><path style="stroke:none" d=""/></g></g><g style="fill:#000000;fill-opacity:1;"><g transform="translate(76.51708, 53.487333)"><path style="stroke:none" d="M 12.96875 -7.09375 C 12.9375 -4.664062 12.445312 -2.71875 11.5 -1.25 C 10.550781 0.21875 9.203125 1.109375 7.453125 1.421875 C 5.804688 1.710938 4.21875 1.332031 2.6875 0.28125 C 1.15625 -0.769531 0.132812 -2.171875 -0.375 -3.921875 C 0.125 -4.554688 0.722656 -5.097656 1.421875 -5.546875 C 2.117188 -5.992188 2.914062 -6.363281 3.8125 -6.65625 C 4.425781 -4.863281 4.921875 -3.695312 5.296875 -3.15625 C 5.679688 -2.613281 6.097656 -2.382812 6.546875 -2.46875 C 7.148438 -2.570312 7.503906 -3.078125 7.609375 -3.984375 C 7.710938 -4.890625 7.597656 -6.28125 7.265625 -8.15625 C 6.878906 -10.269531 6.367188 -12.640625 5.734375 -15.265625 C 5.109375 -17.898438 4.453125 -20.285156 3.765625 -22.421875 C 4.179688 -22.835938 4.742188 -23.203125 5.453125 -23.515625 C 6.171875 -23.828125 6.9375 -24.054688 7.75 -24.203125 C 8.320312 -24.296875 8.847656 -24.359375 9.328125 -24.390625 C 9.804688 -24.429688 10.285156 -24.425781 10.765625 -24.375 C 10.898438 -23.75 11.046875 -23.046875 11.203125 -22.265625 C 11.367188 -21.492188 11.53125 -20.671875 11.6875 -19.796875 C 12.175781 -17.078125 12.515625 -14.785156 12.703125 -12.921875 C 12.890625 -11.054688 12.976562 -9.113281 12.96875 -7.09375 Z M 12.96875 -7.09375 "/></g></g><g style="fill:#000000;fill-opacity:1;"><g transform="translate(91.020953, 50.867151)"><path style="stroke:none" d="M 7.5625 -0.90625 C 5.394531 -0.550781 3.632812 -1.003906 2.28125 -2.265625 C 0.925781 -3.535156 0.03125 -5.523438 -0.40625 -8.234375 C -0.644531 -9.710938 -0.734375 -11.285156 -0.671875 -12.953125 C -0.617188 -14.628906 -0.488281 -15.789062 -0.28125 -16.4375 C 0.164062 -16.632812 0.625 -16.800781 1.09375 -16.9375 C 1.5625 -17.070312 2.003906 -17.171875 2.421875 -17.234375 C 3.046875 -17.335938 3.59375 -17.382812 4.0625 -17.375 C 4.539062 -17.375 4.914062 -17.328125 5.1875 -17.234375 C 5.175781 -16.097656 5.207031 -14.953125 5.28125 -13.796875 C 5.363281 -12.640625 5.492188 -11.53125 5.671875 -10.46875 C 5.972656 -8.601562 6.316406 -7.160156 6.703125 -6.140625 C 7.097656 -5.128906 7.5 -4.65625 7.90625 -4.71875 C 8.300781 -4.78125 8.515625 -5.425781 8.546875 -6.65625 C 8.578125 -7.894531 8.4375 -9.488281 8.125 -11.4375 C 7.976562 -12.351562 7.78125 -13.296875 7.53125 -14.265625 C 7.289062 -15.242188 7.097656 -15.921875 6.953125 -16.296875 C 7.671875 -16.734375 8.582031 -17.144531 9.6875 -17.53125 C 10.800781 -17.914062 11.898438 -18.195312 12.984375 -18.375 C 13.171875 -17.90625 13.347656 -17.3125 13.515625 -16.59375 C 13.679688 -15.875 13.835938 -15.082031 13.984375 -14.21875 C 14.609375 -10.3125 14.378906 -7.222656 13.296875 -4.953125 C 12.210938 -2.691406 10.300781 -1.34375 7.5625 -0.90625 Z M 7.5625 -0.90625 "/></g></g><g style="fill:#000000;fill-opacity:1;"><g transform="translate(105.986184, 48.428249)"><path style="stroke:none" d="M 6.9375 -4.078125 C 7.019531 -3.515625 7.101562 -2.953125 7.1875 -2.390625 C 7.28125 -1.828125 7.40625 -1.15625 7.5625 -0.375 C 7.019531 -0.144531 6.269531 0.0976562 5.3125 0.359375 C 4.351562 0.617188 3.445312 0.8125 2.59375 0.9375 C 1.976562 -1.25 1.300781 -4.066406 0.5625 -7.515625 C -0.164062 -10.972656 -0.695312 -13.882812 -1.03125 -16.25 C -0.59375 -16.5625 0.0390625 -16.847656 0.875 -17.109375 C 1.707031 -17.378906 2.570312 -17.582031 3.46875 -17.71875 C 3.882812 -17.769531 4.289062 -17.800781 4.6875 -17.8125 C 5.082031 -17.832031 5.484375 -17.828125 5.890625 -17.796875 C 5.890625 -17.054688 5.890625 -16.519531 5.890625 -16.1875 C 5.898438 -15.851562 5.914062 -15.519531 5.9375 -15.1875 C 6.394531 -16.125 6.972656 -16.859375 7.671875 -17.390625 C 8.378906 -17.929688 9.179688 -18.265625 10.078125 -18.390625 C 11.503906 -18.597656 12.65625 -18.238281 13.53125 -17.3125 C 14.414062 -16.382812 15 -14.910156 15.28125 -12.890625 C 15.507812 -11.304688 15.640625 -9.457031 15.671875 -7.34375 C 15.710938 -5.238281 15.660156 -3.632812 15.515625 -2.53125 C 14.722656 -2.414062 13.835938 -2.332031 12.859375 -2.28125 C 11.890625 -2.238281 10.769531 -2.226562 9.5 -2.25 C 9.5625 -4.226562 9.570312 -6.0625 9.53125 -7.75 C 9.488281 -9.4375 9.394531 -10.800781 9.25 -11.84375 C 9.164062 -12.425781 9.019531 -12.835938 8.8125 -13.078125 C 8.613281 -13.328125 8.347656 -13.425781 8.015625 -13.375 C 7.617188 -13.320312 7.269531 -13.046875 6.96875 -12.546875 C 6.664062 -12.046875 6.425781 -11.378906 6.25 -10.546875 C 6.34375 -9.242188 6.453125 -8.050781 6.578125 -6.96875 C 6.703125 -5.894531 6.820312 -4.929688 6.9375 -4.078125 Z M 6.9375 -4.078125 "/></g></g><g style="fill:#000000;fill-opacity:1;"><g transform="translate(122.501864, 46.07359)"><path style="stroke:none" d="M 14.28125 -13.359375 C 13.65625 -12.972656 12.925781 -12.648438 12.09375 -12.390625 C 11.269531 -12.128906 10.265625 -11.925781 9.078125 -11.78125 C 8.941406 -12.863281 8.742188 -13.65625 8.484375 -14.15625 C 8.234375 -14.65625 7.90625 -14.878906 7.5 -14.828125 C 6.90625 -14.753906 6.472656 -13.945312 6.203125 -12.40625 C 5.929688 -10.863281 5.910156 -9.164062 6.140625 -7.3125 C 6.285156 -6.125 6.550781 -5.207031 6.9375 -4.5625 C 7.332031 -3.925781 7.804688 -3.644531 8.359375 -3.71875 C 8.847656 -3.78125 9.328125 -4.039062 9.796875 -4.5 C 10.265625 -4.957031 10.832031 -5.828125 11.5 -7.109375 C 12.101562 -7.078125 12.710938 -6.90625 13.328125 -6.59375 C 13.953125 -6.28125 14.484375 -5.882812 14.921875 -5.40625 C 14.828125 -4.851562 14.515625 -4.226562 13.984375 -3.53125 C 13.460938 -2.84375 12.820312 -2.25 12.0625 -1.75 C 11.457031 -1.332031 10.78125 -0.988281 10.03125 -0.71875 C 9.28125 -0.457031 8.484375 -0.273438 7.640625 -0.171875 C 5.515625 0.0976562 3.773438 -0.328125 2.421875 -1.453125 C 1.066406 -2.578125 0.257812 -4.203125 0 -6.328125 C -0.15625 -7.578125 -0.109375 -8.847656 0.140625 -10.140625 C 0.398438 -11.441406 0.847656 -12.625 1.484375 -13.6875 C 2.171875 -14.882812 3.03125 -15.835938 4.0625 -16.546875 C 5.09375 -17.265625 6.253906 -17.703125 7.546875 -17.859375 C 9.472656 -18.097656 11.023438 -17.816406 12.203125 -17.015625 C 13.378906 -16.210938 14.070312 -14.992188 14.28125 -13.359375 Z M 14.28125 -13.359375 "/></g></g><g style="fill:#000000;fill-opacity:1;"><g transform="translate(136.713171, 44.308902)"><path style="stroke:none" d="M 8.734375 -8.15625 C 9.441406 -8.144531 10.175781 -8.035156 10.9375 -7.828125 C 11.695312 -7.628906 12.382812 -7.332031 13 -6.9375 C 13.15625 -5.46875 12.828125 -4.171875 12.015625 -3.046875 C 11.210938 -1.921875 9.992188 -1.269531 8.359375 -1.09375 C 6.285156 -0.863281 4.597656 -1.421875 3.296875 -2.765625 C 1.992188 -4.109375 1.195312 -6.175781 0.90625 -8.96875 C 0.832031 -9.625 0.765625 -10.304688 0.703125 -11.015625 C 0.648438 -11.722656 0.613281 -12.472656 0.59375 -13.265625 C 0.164062 -13.273438 -0.226562 -13.300781 -0.59375 -13.34375 C -0.96875 -13.382812 -1.304688 -13.429688 -1.609375 -13.484375 C -1.679688 -14.148438 -1.6875 -14.785156 -1.625 -15.390625 C -1.5625 -15.992188 -1.4375 -16.472656 -1.25 -16.828125 C -1.039062 -16.785156 -0.78125 -16.742188 -0.46875 -16.703125 C -0.164062 -16.660156 0.195312 -16.632812 0.625 -16.625 C 0.65625 -17.476562 0.707031 -18.222656 0.78125 -18.859375 C 0.851562 -19.503906 0.929688 -20.078125 1.015625 -20.578125 C 2.242188 -20.710938 3.445312 -20.765625 4.625 -20.734375 C 5.800781 -20.710938 6.757812 -20.613281 7.5 -20.4375 C 7.4375 -19.9375 7.363281 -19.375 7.28125 -18.75 C 7.207031 -18.132812 7.148438 -17.503906 7.109375 -16.859375 C 7.960938 -16.929688 8.785156 -17.023438 9.578125 -17.140625 C 10.367188 -17.253906 11.054688 -17.382812 11.640625 -17.53125 C 11.691406 -17.050781 11.695312 -16.507812 11.65625 -15.90625 C 11.613281 -15.300781 11.53125 -14.742188 11.40625 -14.234375 C 10.90625 -14.078125 10.253906 -13.925781 9.453125 -13.78125 C 8.660156 -13.644531 7.828125 -13.539062 6.953125 -13.46875 C 6.929688 -12.6875 6.929688 -11.898438 6.953125 -11.109375 C 6.972656 -10.328125 7.023438 -9.585938 7.109375 -8.890625 C 7.285156 -7.160156 7.46875 -6.003906 7.65625 -5.421875 C 7.851562 -4.835938 8.09375 -4.554688 8.375 -4.578125 C 8.5625 -4.597656 8.691406 -4.925781 8.765625 -5.5625 C 8.835938 -6.195312 8.828125 -7.0625 8.734375 -8.15625 Z M 8.734375 -8.15625 "/></g></g><g style="fill:#000000;fill-opacity:1;"><g transform="translate(149.10669, 42.976675)"><path style="stroke:none" d="M 4.015625 -23.875 C 4.628906 -23.9375 5.207031 -23.941406 5.75 -23.890625 C 6.289062 -23.835938 6.757812 -23.734375 7.15625 -23.578125 C 7.007812 -23.148438 6.863281 -22.503906 6.71875 -21.640625 C 6.582031 -20.773438 6.492188 -20.023438 6.453125 -19.390625 C 5.753906 -19.203125 4.976562 -19.039062 4.125 -18.90625 C 3.269531 -18.769531 2.296875 -18.660156 1.203125 -18.578125 C 1.015625 -19.015625 0.859375 -19.453125 0.734375 -19.890625 C 0.617188 -20.335938 0.539062 -20.773438 0.5 -21.203125 C 0.46875 -21.535156 0.457031 -21.828125 0.46875 -22.078125 C 0.476562 -22.328125 0.503906 -22.554688 0.546875 -22.765625 C 0.992188 -23.078125 1.503906 -23.320312 2.078125 -23.5 C 2.648438 -23.6875 3.296875 -23.8125 4.015625 -23.875 Z M 0.484375 -15.703125 C 1.003906 -16.085938 1.628906 -16.394531 2.359375 -16.625 C 3.085938 -16.863281 3.878906 -17.023438 4.734375 -17.109375 C 5.148438 -17.148438 5.5625 -17.164062 5.96875 -17.15625 C 6.375 -17.15625 6.753906 -17.140625 7.109375 -17.109375 C 6.796875 -15.742188 6.609375 -13.582031 6.546875 -10.625 C 6.484375 -7.675781 6.5625 -4.46875 6.78125 -1 C 6.363281 -0.726562 5.828125 -0.488281 5.171875 -0.28125 C 4.515625 -0.0820312 3.828125 0.046875 3.109375 0.109375 C 2.796875 0.140625 2.523438 0.15625 2.296875 0.15625 C 2.078125 0.15625 1.890625 0.144531 1.734375 0.125 C 1.140625 -2.789062 0.734375 -5.597656 0.515625 -8.296875 C 0.296875 -10.992188 0.285156 -13.460938 0.484375 -15.703125 Z M 0.484375 -15.703125 "/></g></g><g style="fill:#000000;fill-opacity:1;"><g transform="translate(156.692899, 42.21128)"><path style="stroke:none" d="M 0.171875 -7.234375 C -0.0664062 -10.148438 0.570312 -12.59375 2.09375 -14.5625 C 3.625 -16.53125 5.726562 -17.628906 8.40625 -17.859375 C 10.414062 -18.023438 12.019531 -17.585938 13.21875 -16.546875 C 14.425781 -15.503906 15.113281 -13.945312 15.28125 -11.875 C 15.394531 -10.570312 15.304688 -9.238281 15.015625 -7.875 C 14.722656 -6.507812 14.257812 -5.300781 13.625 -4.25 C 12.894531 -3.0625 11.984375 -2.128906 10.890625 -1.453125 C 9.796875 -0.785156 8.523438 -0.390625 7.078125 -0.265625 C 5.085938 -0.0976562 3.484375 -0.644531 2.265625 -1.90625 C 1.054688 -3.164062 0.359375 -4.941406 0.171875 -7.234375 Z M 9.28125 -9.671875 C 9.15625 -11.285156 8.9375 -12.453125 8.625 -13.171875 C 8.320312 -13.898438 7.898438 -14.242188 7.359375 -14.203125 C 6.867188 -14.160156 6.507812 -13.625 6.28125 -12.59375 C 6.050781 -11.5625 6.003906 -10.234375 6.140625 -8.609375 C 6.242188 -7.273438 6.472656 -6.148438 6.828125 -5.234375 C 7.191406 -4.316406 7.625 -3.878906 8.125 -3.921875 C 8.632812 -3.960938 8.988281 -4.515625 9.1875 -5.578125 C 9.394531 -6.648438 9.425781 -8.015625 9.28125 -9.671875 Z M 9.28125 -9.671875 "/></g></g><g style="fill:#000000;fill-opacity:1;"><g transform="translate(171.955982, 40.931772)"><path style="stroke:none" d="M 7.25 -3.53125 C 7.28125 -2.957031 7.316406 -2.382812 7.359375 -1.8125 C 7.410156 -1.25 7.484375 -0.578125 7.578125 0.203125 C 7.015625 0.398438 6.242188 0.59375 5.265625 0.78125 C 4.285156 0.96875 3.367188 1.085938 2.515625 1.140625 C 2.078125 -1.085938 1.625 -3.953125 1.15625 -7.453125 C 0.695312 -10.953125 0.390625 -13.894531 0.234375 -16.28125 C 0.703125 -16.5625 1.359375 -16.800781 2.203125 -17 C 3.054688 -17.207031 3.9375 -17.335938 4.84375 -17.390625 C 5.257812 -17.421875 5.664062 -17.425781 6.0625 -17.40625 C 6.457031 -17.382812 6.851562 -17.347656 7.25 -17.296875 C 7.1875 -16.546875 7.144531 -16.003906 7.125 -15.671875 C 7.113281 -15.335938 7.109375 -15.003906 7.109375 -14.671875 C 7.640625 -15.578125 8.273438 -16.269531 9.015625 -16.75 C 9.753906 -17.226562 10.570312 -17.5 11.46875 -17.5625 C 12.90625 -17.65625 14.03125 -17.203125 14.84375 -16.203125 C 15.65625 -15.210938 16.125 -13.703125 16.25 -11.671875 C 16.351562 -10.066406 16.335938 -8.207031 16.203125 -6.09375 C 16.066406 -3.988281 15.890625 -2.394531 15.671875 -1.3125 C 14.867188 -1.257812 13.976562 -1.25 13 -1.28125 C 12.03125 -1.3125 10.910156 -1.382812 9.640625 -1.5 C 9.867188 -3.46875 10.023438 -5.296875 10.109375 -6.984375 C 10.203125 -8.671875 10.21875 -10.039062 10.15625 -11.09375 C 10.113281 -11.675781 10 -12.097656 9.8125 -12.359375 C 9.632812 -12.617188 9.375 -12.738281 9.03125 -12.71875 C 8.632812 -12.6875 8.265625 -12.4375 7.921875 -11.96875 C 7.578125 -11.5 7.285156 -10.851562 7.046875 -10.03125 C 7.046875 -8.726562 7.0625 -7.53125 7.09375 -6.4375 C 7.132812 -5.351562 7.1875 -4.382812 7.25 -3.53125 Z M 7.25 -3.53125 "/></g></g></g></g><g transform="matrix(1,0,0,1,131,210)"><g clip-path="url(#c19b5481c7)"><g style="fill:#000000;fill-opacity:1;"><g transform="translate(8.496488, 33.788114)"><path style="stroke:none" d="M 9.6875 2.390625 C 8.96875 3.335938 8 3.863281 6.78125 3.96875 C 5.570312 4.070312 4.445312 3.726562 3.40625 2.9375 C 3.007812 2.644531 2.65625 2.289062 2.34375 1.875 C 2.039062 1.457031 1.789062 0.988281 1.59375 0.46875 C 2.164062 -0.507812 2.789062 -1.5 3.46875 -2.5 C 4.144531 -3.5 4.890625 -4.535156 5.703125 -5.609375 C 6.054688 -6.085938 6.320312 -6.441406 6.5 -6.671875 C 6.6875 -6.898438 6.863281 -7.113281 7.03125 -7.3125 C 7.644531 -7.195312 8.238281 -7.015625 8.8125 -6.765625 C 9.382812 -6.515625 9.910156 -6.207031 10.390625 -5.84375 C 11.347656 -5.125 11.953125 -4.40625 12.203125 -3.6875 C 12.453125 -2.976562 12.335938 -2.3125 11.859375 -1.6875 C 11.566406 -1.300781 11.21875 -1.015625 10.8125 -0.828125 C 10.414062 -0.640625 9.96875 -0.566406 9.46875 -0.609375 C 9.863281 -0.0664062 10.078125 0.460938 10.109375 0.984375 C 10.140625 1.503906 10 1.972656 9.6875 2.390625 Z M 9.3125 -3.09375 C 9.550781 -3.40625 9.644531 -3.703125 9.59375 -3.984375 C 9.539062 -4.273438 9.347656 -4.550781 9.015625 -4.8125 L 8.984375 -4.828125 C 8.609375 -4.421875 8.253906 -4.03125 7.921875 -3.65625 C 7.585938 -3.28125 7.28125 -2.921875 7 -2.578125 C 7.46875 -2.359375 7.898438 -2.289062 8.296875 -2.375 C 8.691406 -2.46875 9.03125 -2.707031 9.3125 -3.09375 Z M 4.203125 1.0625 C 4.273438 1.195312 4.34375 1.316406 4.40625 1.421875 C 4.476562 1.523438 4.566406 1.613281 4.671875 1.6875 C 4.972656 1.914062 5.359375 1.960938 5.828125 1.828125 C 6.296875 1.703125 6.675781 1.445312 6.96875 1.0625 C 7.21875 0.738281 7.3125 0.425781 7.25 0.125 C 7.195312 -0.175781 6.988281 -0.460938 6.625 -0.734375 C 6.53125 -0.804688 6.421875 -0.875 6.296875 -0.9375 C 6.171875 -1 6.019531 -1.050781 5.84375 -1.09375 C 5.75 -0.988281 5.65625 -0.875 5.5625 -0.75 C 5.46875 -0.632812 5.320312 -0.445312 5.125 -0.1875 C 4.863281 0.164062 4.664062 0.425781 4.53125 0.59375 C 4.40625 0.769531 4.296875 0.925781 4.203125 1.0625 Z M 4.203125 1.0625 "/></g></g><g style="fill:#000000;fill-opacity:1;"><g transform="translate(16.461697, 39.752541)"><path style="stroke:none" d="M 7.328125 4.375 C 7.035156 4.320312 6.191406 3.960938 4.796875 3.296875 C 3.398438 2.628906 2.253906 2.039062 1.359375 1.53125 C 1.929688 0.0507812 2.648438 -1.640625 3.515625 -3.546875 C 4.378906 -5.453125 5.144531 -7.007812 5.8125 -8.21875 C 7.28125 -7.71875 8.523438 -7.242188 9.546875 -6.796875 C 10.578125 -6.347656 11.550781 -5.859375 12.46875 -5.328125 C 12.28125 -5.003906 12.066406 -4.675781 11.828125 -4.34375 C 11.597656 -4.019531 11.332031 -3.6875 11.03125 -3.34375 C 10.550781 -3.625 10.050781 -3.898438 9.53125 -4.171875 C 9.007812 -4.453125 8.457031 -4.734375 7.875 -5.015625 C 7.75 -4.835938 7.613281 -4.628906 7.46875 -4.390625 C 7.320312 -4.148438 7.109375 -3.789062 6.828125 -3.3125 C 7.328125 -3.195312 7.8125 -3.039062 8.28125 -2.84375 C 8.75 -2.65625 9.210938 -2.429688 9.671875 -2.171875 C 9.554688 -1.835938 9.425781 -1.503906 9.28125 -1.171875 C 9.144531 -0.835938 8.953125 -0.457031 8.703125 -0.03125 C 8.210938 -0.3125 7.722656 -0.570312 7.234375 -0.8125 C 6.742188 -1.0625 6.257812 -1.285156 5.78125 -1.484375 C 5.5625 -1.097656 5.351562 -0.71875 5.15625 -0.34375 C 4.957031 0.03125 4.785156 0.390625 4.640625 0.734375 C 4.878906 0.878906 5.425781 1.128906 6.28125 1.484375 C 7.132812 1.847656 7.78125 2.101562 8.21875 2.25 C 8.1875 2.476562 8.070312 2.804688 7.875 3.234375 C 7.6875 3.671875 7.503906 4.050781 7.328125 4.375 Z M 7.328125 4.375 "/></g></g><g style="fill:#000000;fill-opacity:1;"><g transform="translate(24.648453, 44.40759)"><path style="stroke:none" d="M 8.53125 -1.828125 C 8.613281 -1.441406 8.640625 -1.066406 8.609375 -0.703125 C 8.578125 -0.347656 8.484375 0.0078125 8.328125 0.375 C 7.921875 1.300781 7.25 1.925781 6.3125 2.25 C 5.382812 2.582031 4.429688 2.539062 3.453125 2.125 C 2.378906 1.664062 1.625 0.953125 1.1875 -0.015625 C 0.757812 -0.992188 0.738281 -1.9375 1.125 -2.84375 C 1.476562 -2.863281 1.882812 -2.835938 2.34375 -2.765625 C 2.800781 -2.691406 3.171875 -2.597656 3.453125 -2.484375 C 3.148438 -1.796875 3.035156 -1.1875 3.109375 -0.65625 C 3.179688 -0.132812 3.445312 0.222656 3.90625 0.421875 C 4.21875 0.554688 4.492188 0.570312 4.734375 0.46875 C 4.972656 0.363281 5.160156 0.15625 5.296875 -0.15625 C 5.410156 -0.414062 5.429688 -0.707031 5.359375 -1.03125 C 5.296875 -1.351562 5.054688 -1.875 4.640625 -2.59375 C 4.335938 -3.132812 4.125 -3.550781 4 -3.84375 C 3.875 -4.144531 3.78125 -4.429688 3.71875 -4.703125 C 3.625 -5.109375 3.59375 -5.492188 3.625 -5.859375 C 3.664062 -6.234375 3.769531 -6.609375 3.9375 -6.984375 C 4.320312 -7.878906 4.957031 -8.472656 5.84375 -8.765625 C 6.738281 -9.066406 7.707031 -8.992188 8.75 -8.546875 C 9.675781 -8.148438 10.320312 -7.609375 10.6875 -6.921875 C 11.0625 -6.234375 11.15625 -5.410156 10.96875 -4.453125 C 10.625 -4.398438 10.265625 -4.394531 9.890625 -4.4375 C 9.523438 -4.488281 9.0625 -4.613281 8.5 -4.8125 C 8.664062 -5.394531 8.703125 -5.847656 8.609375 -6.171875 C 8.523438 -6.503906 8.316406 -6.738281 7.984375 -6.875 C 7.773438 -6.96875 7.582031 -6.972656 7.40625 -6.890625 C 7.226562 -6.816406 7.09375 -6.671875 7 -6.453125 C 6.875 -6.160156 6.84375 -5.835938 6.90625 -5.484375 C 6.976562 -5.140625 7.222656 -4.609375 7.640625 -3.890625 C 7.941406 -3.359375 8.148438 -2.945312 8.265625 -2.65625 C 8.378906 -2.363281 8.46875 -2.085938 8.53125 -1.828125 Z M 8.53125 -1.828125 "/></g></g><g style="fill:#000000;fill-opacity:1;"><g transform="translate(32.638877, 47.814524)"><path style="stroke:none" d="M 5.828125 1.078125 C 5.390625 1.046875 4.960938 0.992188 4.546875 0.921875 C 4.128906 0.847656 3.671875 0.738281 3.171875 0.59375 C 3.566406 -0.726562 3.953125 -2.164062 4.328125 -3.71875 C 4.710938 -5.269531 5.003906 -6.613281 5.203125 -7.75 C 5.078125 -7.789062 4.832031 -7.84375 4.46875 -7.90625 C 4.113281 -7.976562 3.640625 -8.070312 3.046875 -8.1875 C 3.023438 -8.550781 3.03125 -8.914062 3.0625 -9.28125 C 3.101562 -9.65625 3.175781 -10.007812 3.28125 -10.34375 C 4.65625 -10.25 5.941406 -10.09375 7.140625 -9.875 C 8.347656 -9.65625 9.691406 -9.320312 11.171875 -8.875 C 11.179688 -8.695312 11.164062 -8.5 11.125 -8.28125 C 11.09375 -8.070312 11.039062 -7.847656 10.96875 -7.609375 C 10.914062 -7.441406 10.847656 -7.257812 10.765625 -7.0625 C 10.679688 -6.875 10.570312 -6.671875 10.4375 -6.453125 C 10.09375 -6.554688 9.75 -6.65625 9.40625 -6.75 C 9.0625 -6.851562 8.722656 -6.945312 8.390625 -7.03125 C 8.253906 -6.4375 8.101562 -5.816406 7.9375 -5.171875 C 7.769531 -4.535156 7.582031 -3.882812 7.375 -3.21875 C 7.195312 -2.601562 6.976562 -1.9375 6.71875 -1.21875 C 6.46875 -0.507812 6.171875 0.253906 5.828125 1.078125 Z M 5.828125 1.078125 "/></g></g><g style="fill:#000000;fill-opacity:1;"><g transform="translate(41.160656, 50.237387)"><path style="stroke:none" d=""/></g></g><g style="fill:#000000;fill-opacity:1;"><g transform="translate(44.604079, 51.058722)"><path style="stroke:none" d="M 7.71875 -4.0625 C 7.90625 -3.707031 8.03125 -3.347656 8.09375 -2.984375 C 8.164062 -2.628906 8.175781 -2.253906 8.125 -1.859375 C 7.988281 -0.859375 7.515625 -0.078125 6.703125 0.484375 C 5.890625 1.046875 4.957031 1.257812 3.90625 1.125 C 2.75 0.96875 1.828125 0.476562 1.140625 -0.34375 C 0.460938 -1.164062 0.191406 -2.066406 0.328125 -3.046875 C 0.660156 -3.160156 1.054688 -3.242188 1.515625 -3.296875 C 1.972656 -3.347656 2.351562 -3.359375 2.65625 -3.328125 C 2.550781 -2.585938 2.601562 -1.972656 2.8125 -1.484375 C 3.03125 -0.992188 3.382812 -0.710938 3.875 -0.640625 C 4.21875 -0.597656 4.488281 -0.660156 4.6875 -0.828125 C 4.882812 -0.992188 5.007812 -1.242188 5.0625 -1.578125 C 5.09375 -1.867188 5.035156 -2.15625 4.890625 -2.4375 C 4.742188 -2.726562 4.367188 -3.171875 3.765625 -3.765625 C 3.335938 -4.191406 3.019531 -4.53125 2.8125 -4.78125 C 2.613281 -5.039062 2.445312 -5.289062 2.3125 -5.53125 C 2.113281 -5.894531 1.984375 -6.257812 1.921875 -6.625 C 1.859375 -7 1.851562 -7.390625 1.90625 -7.796875 C 2.03125 -8.765625 2.476562 -9.507812 3.25 -10.03125 C 4.03125 -10.550781 4.984375 -10.738281 6.109375 -10.59375 C 7.117188 -10.457031 7.894531 -10.109375 8.4375 -9.546875 C 8.988281 -8.984375 9.296875 -8.210938 9.359375 -7.234375 C 9.046875 -7.097656 8.703125 -7.003906 8.328125 -6.953125 C 7.960938 -6.898438 7.484375 -6.890625 6.890625 -6.921875 C 6.890625 -7.523438 6.800781 -7.972656 6.625 -8.265625 C 6.457031 -8.566406 6.191406 -8.738281 5.828125 -8.78125 C 5.609375 -8.8125 5.421875 -8.765625 5.265625 -8.640625 C 5.117188 -8.515625 5.03125 -8.332031 5 -8.09375 C 4.957031 -7.769531 5.015625 -7.453125 5.171875 -7.140625 C 5.335938 -6.828125 5.710938 -6.378906 6.296875 -5.796875 C 6.742188 -5.378906 7.0625 -5.046875 7.25 -4.796875 C 7.4375 -4.546875 7.59375 -4.300781 7.71875 -4.0625 Z M 7.71875 -4.0625 "/></g></g><g style="fill:#000000;fill-opacity:1;"><g transform="translate(53.217003, 52.185023)"><path style="stroke:none" d="M 5.90625 -0.53125 C 5.476562 -0.4375 5.050781 -0.367188 4.625 -0.328125 C 4.207031 -0.296875 3.738281 -0.28125 3.21875 -0.28125 C 3.25 -1.65625 3.234375 -3.140625 3.171875 -4.734375 C 3.117188 -6.335938 3.035156 -7.71875 2.921875 -8.875 C 2.796875 -8.875 2.550781 -8.859375 2.1875 -8.828125 C 1.820312 -8.796875 1.335938 -8.753906 0.734375 -8.703125 C 0.609375 -9.054688 0.507812 -9.414062 0.4375 -9.78125 C 0.375 -10.144531 0.347656 -10.5 0.359375 -10.84375 C 1.722656 -11.125 3.015625 -11.316406 4.234375 -11.421875 C 5.453125 -11.535156 6.832031 -11.582031 8.375 -11.5625 C 8.425781 -11.394531 8.460938 -11.203125 8.484375 -10.984375 C 8.503906 -10.773438 8.515625 -10.546875 8.515625 -10.296875 C 8.503906 -10.117188 8.484375 -9.925781 8.453125 -9.71875 C 8.429688 -9.507812 8.382812 -9.28125 8.3125 -9.03125 C 7.945312 -9.039062 7.585938 -9.046875 7.234375 -9.046875 C 6.878906 -9.054688 6.53125 -9.050781 6.1875 -9.03125 C 6.207031 -8.414062 6.222656 -7.78125 6.234375 -7.125 C 6.242188 -6.46875 6.242188 -5.789062 6.234375 -5.09375 C 6.222656 -4.445312 6.191406 -3.742188 6.140625 -2.984375 C 6.085938 -2.234375 6.007812 -1.414062 5.90625 -0.53125 Z M 5.90625 -0.53125 "/></g></g><g style="fill:#000000;fill-opacity:1;"><g transform="translate(62.243254, 52.339263)"><path style="stroke:none" d="M 9.359375 -1.625 C 9.085938 -1.28125 8.742188 -0.960938 8.328125 -0.671875 C 7.910156 -0.378906 7.425781 -0.125 6.875 0.09375 C 6.082031 -1.320312 5.492188 -2.320312 5.109375 -2.90625 C 4.734375 -3.488281 4.34375 -4.019531 3.9375 -4.5 C 3.863281 -4.476562 3.800781 -4.457031 3.75 -4.4375 C 3.707031 -4.425781 3.664062 -4.40625 3.625 -4.375 C 3.6875 -3.664062 3.734375 -2.972656 3.765625 -2.296875 C 3.796875 -1.628906 3.816406 -0.960938 3.828125 -0.296875 C 3.390625 -0.242188 2.941406 -0.210938 2.484375 -0.203125 C 2.023438 -0.191406 1.625 -0.203125 1.28125 -0.234375 C 1.25 -0.691406 1.222656 -1.03125 1.203125 -1.25 C 1.179688 -1.46875 1.160156 -1.675781 1.140625 -1.875 C 1.015625 -3.125 0.835938 -4.414062 0.609375 -5.75 C 0.390625 -7.082031 0.101562 -8.53125 -0.25 -10.09375 C 0.164062 -10.539062 0.691406 -10.910156 1.328125 -11.203125 C 1.960938 -11.492188 2.601562 -11.675781 3.25 -11.75 C 4.53125 -11.882812 5.546875 -11.710938 6.296875 -11.234375 C 7.046875 -10.765625 7.472656 -10.035156 7.578125 -9.046875 C 7.640625 -8.453125 7.539062 -7.878906 7.28125 -7.328125 C 7.019531 -6.785156 6.609375 -6.269531 6.046875 -5.78125 C 6.617188 -5.257812 7.175781 -4.65625 7.71875 -3.96875 C 8.257812 -3.289062 8.804688 -2.507812 9.359375 -1.625 Z M 3.46875 -6.203125 L 3.46875 -6.140625 C 3.90625 -6.367188 4.21875 -6.675781 4.40625 -7.0625 C 4.59375 -7.457031 4.660156 -7.925781 4.609375 -8.46875 C 4.546875 -9.019531 4.378906 -9.4375 4.109375 -9.71875 C 3.835938 -10 3.476562 -10.113281 3.03125 -10.0625 L 2.96875 -10.0625 C 3.101562 -9.09375 3.207031 -8.328125 3.28125 -7.765625 C 3.351562 -7.210938 3.414062 -6.691406 3.46875 -6.203125 Z M 3.46875 -6.203125 "/></g></g><g style="fill:#000000;fill-opacity:1;"><g transform="translate(72.060737, 51.262977)"><path style="stroke:none" d="M 8.34375 -1.796875 C 8.082031 -1.640625 7.210938 -1.328125 5.734375 -0.859375 C 4.265625 -0.398438 3.03125 -0.0507812 2.03125 0.1875 C 1.4375 -1.28125 0.800781 -3.003906 0.125 -4.984375 C -0.539062 -6.972656 -1.039062 -8.640625 -1.375 -9.984375 C 0.0390625 -10.609375 1.273438 -11.109375 2.328125 -11.484375 C 3.390625 -11.859375 4.4375 -12.164062 5.46875 -12.40625 C 5.550781 -12.050781 5.617188 -11.671875 5.671875 -11.265625 C 5.722656 -10.859375 5.753906 -10.429688 5.765625 -9.984375 C 5.222656 -9.859375 4.664062 -9.71875 4.09375 -9.5625 C 3.53125 -9.40625 2.941406 -9.234375 2.328125 -9.046875 C 2.359375 -8.835938 2.398438 -8.59375 2.453125 -8.3125 C 2.503906 -8.03125 2.59375 -7.617188 2.71875 -7.078125 C 3.175781 -7.335938 3.640625 -7.554688 4.109375 -7.734375 C 4.578125 -7.921875 5.066406 -8.070312 5.578125 -8.1875 C 5.734375 -7.875 5.867188 -7.539062 5.984375 -7.1875 C 6.109375 -6.84375 6.222656 -6.4375 6.328125 -5.96875 C 5.785156 -5.84375 5.25 -5.703125 4.71875 -5.546875 C 4.195312 -5.390625 3.691406 -5.21875 3.203125 -5.03125 C 3.304688 -4.59375 3.414062 -4.171875 3.53125 -3.765625 C 3.644531 -3.359375 3.769531 -2.976562 3.90625 -2.625 C 4.175781 -2.6875 4.742188 -2.875 5.609375 -3.1875 C 6.472656 -3.507812 7.117188 -3.765625 7.546875 -3.953125 C 7.671875 -3.773438 7.8125 -3.460938 7.96875 -3.015625 C 8.132812 -2.566406 8.257812 -2.160156 8.34375 -1.796875 Z M 8.34375 -1.796875 "/></g></g><g style="fill:#000000;fill-opacity:1;"><g transform="translate(81.24425, 49.084846)"><path style="stroke:none" d="M 8.0625 -2.8125 C 7.820312 -2.625 7 -2.207031 5.59375 -1.5625 C 4.1875 -0.925781 3 -0.429688 2.03125 -0.078125 C 1.269531 -1.453125 0.4375 -3.082031 -0.46875 -4.96875 C -1.382812 -6.851562 -2.085938 -8.445312 -2.578125 -9.75 C -1.253906 -10.539062 -0.09375 -11.179688 0.90625 -11.671875 C 1.914062 -12.171875 2.921875 -12.601562 3.921875 -12.96875 C 4.046875 -12.632812 4.15625 -12.265625 4.25 -11.859375 C 4.351562 -11.460938 4.4375 -11.046875 4.5 -10.609375 C 3.976562 -10.421875 3.445312 -10.210938 2.90625 -9.984375 C 2.363281 -9.765625 1.796875 -9.523438 1.203125 -9.265625 C 1.253906 -9.054688 1.320312 -8.816406 1.40625 -8.546875 C 1.5 -8.273438 1.640625 -7.878906 1.828125 -7.359375 C 2.253906 -7.671875 2.6875 -7.945312 3.125 -8.1875 C 3.570312 -8.425781 4.039062 -8.632812 4.53125 -8.8125 C 4.71875 -8.507812 4.894531 -8.191406 5.0625 -7.859375 C 5.226562 -7.535156 5.394531 -7.144531 5.5625 -6.6875 C 5.039062 -6.5 4.523438 -6.289062 4.015625 -6.0625 C 3.515625 -5.84375 3.03125 -5.617188 2.5625 -5.390625 C 2.71875 -4.960938 2.878906 -4.554688 3.046875 -4.171875 C 3.210938 -3.785156 3.378906 -3.421875 3.546875 -3.078125 C 3.804688 -3.171875 4.347656 -3.425781 5.171875 -3.84375 C 5.992188 -4.269531 6.609375 -4.609375 7.015625 -4.859375 C 7.160156 -4.691406 7.335938 -4.394531 7.546875 -3.96875 C 7.765625 -3.539062 7.9375 -3.15625 8.0625 -2.8125 Z M 8.0625 -2.8125 "/></g></g><g style="fill:#000000;fill-opacity:1;"><g transform="translate(90.078852, 45.797408)"><path style="stroke:none" d="M 4.953125 -3.25 C 4.617188 -2.96875 4.273438 -2.707031 3.921875 -2.46875 C 3.578125 -2.238281 3.175781 -2.007812 2.71875 -1.78125 C 2.09375 -3 1.378906 -4.296875 0.578125 -5.671875 C -0.222656 -7.054688 -0.941406 -8.234375 -1.578125 -9.203125 C -1.691406 -9.148438 -1.898438 -9.019531 -2.203125 -8.8125 C -2.515625 -8.613281 -2.925781 -8.351562 -3.4375 -8.03125 C -3.707031 -8.28125 -3.957031 -8.550781 -4.1875 -8.84375 C -4.414062 -9.132812 -4.609375 -9.429688 -4.765625 -9.734375 C -3.691406 -10.617188 -2.644531 -11.394531 -1.625 -12.0625 C -0.601562 -12.738281 0.59375 -13.429688 1.96875 -14.140625 C 2.082031 -14.015625 2.203125 -13.863281 2.328125 -13.6875 C 2.453125 -13.507812 2.570312 -13.304688 2.6875 -13.078125 C 2.757812 -12.921875 2.832031 -12.742188 2.90625 -12.546875 C 2.976562 -12.347656 3.039062 -12.125 3.09375 -11.875 C 2.769531 -11.707031 2.445312 -11.539062 2.125 -11.375 C 1.8125 -11.21875 1.507812 -11.050781 1.21875 -10.875 C 1.53125 -10.351562 1.84375 -9.800781 2.15625 -9.21875 C 2.46875 -8.632812 2.785156 -8.035156 3.109375 -7.421875 C 3.398438 -6.835938 3.703125 -6.203125 4.015625 -5.515625 C 4.328125 -4.828125 4.640625 -4.070312 4.953125 -3.25 Z M 4.953125 -3.25 "/></g></g><g style="fill:#000000;fill-opacity:1;"><g transform="translate(97.917198, 41.668312)"><path style="stroke:none" d=""/></g></g><g style="fill:#000000;fill-opacity:1;"><g transform="translate(100.978373, 39.887484)"><path style="stroke:none" d="M 4.109375 -1.828125 C 3.816406 -1.472656 3.515625 -1.148438 3.203125 -0.859375 C 2.890625 -0.578125 2.519531 -0.28125 2.09375 0.03125 C 1.03125 -1.414062 -0.25 -3.03125 -1.75 -4.8125 C -3.257812 -6.59375 -4.523438 -7.988281 -5.546875 -9 C -5.109375 -9.351562 -4.671875 -9.71875 -4.234375 -10.09375 C -3.804688 -10.476562 -3.363281 -10.898438 -2.90625 -11.359375 C -2.5625 -11.679688 -2.097656 -12.125 -1.515625 -12.6875 C -0.941406 -13.257812 -0.546875 -13.65625 -0.328125 -13.875 C -0.191406 -13.769531 -0.0507812 -13.640625 0.09375 -13.484375 C 0.238281 -13.328125 0.390625 -13.144531 0.546875 -12.9375 C 0.648438 -12.800781 0.75 -12.640625 0.84375 -12.453125 C 0.945312 -12.265625 1.046875 -12.0625 1.140625 -11.84375 C 0.492188 -11.25 -0.0390625 -10.757812 -0.46875 -10.375 C -0.894531 -10 -1.203125 -9.726562 -1.390625 -9.5625 C -1.148438 -9.226562 -0.898438 -8.894531 -0.640625 -8.5625 C -0.378906 -8.238281 -0.128906 -7.910156 0.109375 -7.578125 C 0.398438 -7.910156 0.695312 -8.210938 1 -8.484375 C 1.300781 -8.753906 1.617188 -9.015625 1.953125 -9.265625 C 2.222656 -9.046875 2.472656 -8.804688 2.703125 -8.546875 C 2.941406 -8.285156 3.21875 -7.9375 3.53125 -7.5 C 3.101562 -7.1875 2.71875 -6.890625 2.375 -6.609375 C 2.039062 -6.335938 1.734375 -6.066406 1.453125 -5.796875 C 1.960938 -5.035156 2.441406 -4.328125 2.890625 -3.671875 C 3.347656 -3.015625 3.753906 -2.398438 4.109375 -1.828125 Z M 4.109375 -1.828125 "/></g></g><g style="fill:#000000;fill-opacity:1;"><g transform="translate(108.062532, 34.734379)"><path style="stroke:none" d="M -3.421875 -11.59375 C -2.554688 -12.394531 -1.625 -12.734375 -0.625 -12.609375 C 0.375 -12.492188 1.359375 -11.914062 2.328125 -10.875 C 2.847656 -10.320312 3.300781 -9.6875 3.6875 -8.96875 C 4.070312 -8.25 4.335938 -7.546875 4.484375 -6.859375 C 4.648438 -6.003906 4.625 -5.21875 4.40625 -4.5 C 4.195312 -3.78125 3.796875 -3.144531 3.203125 -2.59375 C 2.347656 -1.78125 1.367188 -1.484375 0.265625 -1.703125 C -0.835938 -1.921875 -1.914062 -2.597656 -2.96875 -3.734375 C -4.175781 -5.023438 -4.828125 -6.398438 -4.921875 -7.859375 C -5.015625 -9.328125 -4.515625 -10.570312 -3.421875 -11.59375 Z M 2.34375 -4.421875 C 2.664062 -4.722656 2.695312 -5.164062 2.4375 -5.75 C 2.1875 -6.34375 1.582031 -7.15625 0.625 -8.1875 C -0.195312 -9.0625 -0.851562 -9.617188 -1.34375 -9.859375 C -1.832031 -10.109375 -2.242188 -10.078125 -2.578125 -9.765625 C -2.910156 -9.460938 -2.9375 -8.988281 -2.65625 -8.34375 C -2.382812 -7.695312 -1.847656 -6.945312 -1.046875 -6.09375 C -0.273438 -5.269531 0.398438 -4.707031 0.984375 -4.40625 C 1.578125 -4.113281 2.03125 -4.117188 2.34375 -4.421875 Z M 2.34375 -4.421875 "/></g></g><g style="fill:#000000;fill-opacity:1;"><g transform="translate(115.389091, 27.841126)"><path style="stroke:none" d="M -4.875 -11.046875 C -4.132812 -11.953125 -3.257812 -12.410156 -2.25 -12.421875 C -1.25 -12.429688 -0.203125 -11.988281 0.890625 -11.09375 C 1.472656 -10.601562 2.003906 -10.023438 2.484375 -9.359375 C 2.972656 -8.703125 3.332031 -8.039062 3.5625 -7.375 C 3.832031 -6.5625 3.910156 -5.78125 3.796875 -5.03125 C 3.679688 -4.289062 3.363281 -3.609375 2.84375 -2.984375 C 2.09375 -2.078125 1.15625 -1.660156 0.03125 -1.734375 C -1.082031 -1.804688 -2.238281 -2.335938 -3.4375 -3.328125 C -4.8125 -4.453125 -5.632812 -5.726562 -5.90625 -7.15625 C -6.175781 -8.59375 -5.832031 -9.890625 -4.875 -11.046875 Z M 1.765625 -4.6875 C 2.035156 -5.019531 2.003906 -5.460938 1.671875 -6.015625 C 1.335938 -6.578125 0.628906 -7.304688 -0.453125 -8.203125 C -1.378906 -8.960938 -2.097656 -9.429688 -2.609375 -9.609375 C -3.128906 -9.785156 -3.53125 -9.695312 -3.8125 -9.34375 C -4.101562 -9 -4.070312 -8.523438 -3.71875 -7.921875 C -3.375 -7.328125 -2.75 -6.65625 -1.84375 -5.90625 C -0.96875 -5.195312 -0.21875 -4.726562 0.40625 -4.5 C 1.03125 -4.28125 1.484375 -4.34375 1.765625 -4.6875 Z M 1.765625 -4.6875 "/></g></g><g style="fill:#000000;fill-opacity:1;"><g transform="translate(121.749458, 20.056346)"><path style="stroke:none" d="M -0.703125 -11.109375 C 0.453125 -10.378906 1.300781 -9.222656 1.84375 -7.640625 C 2.394531 -6.054688 2.460938 -4.515625 2.046875 -3.015625 C 1.816406 -2.648438 1.566406 -2.285156 1.296875 -1.921875 C 1.035156 -1.554688 0.789062 -1.25 0.5625 -1 C -0.695312 -1.601562 -1.875 -2.195312 -2.96875 -2.78125 C -4.070312 -3.375 -5.082031 -3.960938 -6 -4.546875 C -6.300781 -4.734375 -6.609375 -4.925781 -6.921875 -5.125 C -7.234375 -5.320312 -7.539062 -5.53125 -7.84375 -5.75 C -7.757812 -6.46875 -7.625 -7.097656 -7.4375 -7.640625 C -7.25 -8.191406 -6.992188 -8.722656 -6.671875 -9.234375 C -5.859375 -10.535156 -4.9375 -11.347656 -3.90625 -11.671875 C -2.882812 -11.992188 -1.816406 -11.804688 -0.703125 -11.109375 Z M -5.453125 -7.90625 C -4.703125 -7.34375 -3.914062 -6.773438 -3.09375 -6.203125 C -2.269531 -5.628906 -1.398438 -5.0625 -0.484375 -4.5 C -0.304688 -4.382812 -0.171875 -4.296875 -0.078125 -4.234375 C 0.015625 -4.171875 0.101562 -4.125 0.1875 -4.09375 C 0.257812 -4.988281 0.0820312 -5.816406 -0.34375 -6.578125 C -0.78125 -7.335938 -1.425781 -7.988281 -2.28125 -8.53125 C -2.882812 -8.914062 -3.460938 -9.066406 -4.015625 -8.984375 C -4.578125 -8.910156 -5.019531 -8.617188 -5.34375 -8.109375 C -5.375 -8.046875 -5.394531 -8 -5.40625 -7.96875 C -5.425781 -7.945312 -5.441406 -7.925781 -5.453125 -7.90625 Z M -5.453125 -7.90625 "/></g></g></g></g></g></svg>